<svg xmlns="http://www.w3.org/2000/svg" viewBox="0 0 1080 1940"><path fill="none" stroke="#841026" stroke-width="2" d="M501.96 602.5q-.49.14-.96.14-141.81.09-283.6.13a1 1 0 0 0-.76.35l-31.3 36.23q-1.43 1.65.76 1.65h297.31c.73 0 1.49.37 2.34.29" vector-effect="non-scaling-stroke"/><path fill="#e4002b" d="M501.96 602.5q-.49.14-.96.14-141.81.09-283.6.13a1 1 0 0 0-.76.35l-31.3 36.23q-1.43 1.65.76 1.65h297.31c.73 0 1.49.37 2.34.29q-33.71 68.91-90.54 121.93c-20.34 18.98-41 36.07-62.01 53.64q-8.98 7.51-14.83 13.41c-27.63 27.86-52.29 58.38-69.08 94.03-17.12 36.34-23.38 78.83-13.77 117.69 9.22 37.33 28.27 66.59 53.23 95.02q14.66 16.7 30.75 29.01c32.36 24.76 66.21 47.32 98.65 71.89 60.98 46.19 93.51 108.47 108.72 182.62q11.55 56.3 15.15 108.72 2.23 32.6 3.03 78.44c1.83 105.66.05 211.46-3.01 317.08a1 1 0 0 1-1.01.97l-8.01-.05a1 .99-1.2 0 1-.99-.94q-4.58-76.53-14.77-152.5c-1.28-9.57-3.96-24.16-6.44-38.93-12.45-74.17-63.82-147.44-140.28-165.77-12.28-2.95-28.44-4.28-41.28-6.09-50.34-7.13-99.94-22.98-143.75-49.21-81.82-48.98-130.55-130.66-152.54-221.75-7.68-31.81-13.08-67.47-16.67-99.31q-1.29-11.51-2.66-48.45c-3.42-91.92-3.49-184.02-3.06-275.99q.63-133.15 1.47-266.29a1.01 1-90 0 1 .99-1l9.24-.08a1 1 0 0 1 1.01.97q1.94 68.12 4.67 136.33.58 14.41 1.2 28.82c6.88 158.17 51.23 333.18 200.9 416.66q26.9 15 55.65 26.09c16.66 6.42 33.52 12.75 49.75 19.96 48.85 21.71 97.34 43.45 132.09 84.1q19.28 22.54 34.15 48.31c.51.87.62.08.49-.29-8-22.28-16.6-40.94-31.98-59.04q-18.61-21.88-46.57-41.72c-32.07-22.74-66.33-40.93-101.08-59.12q-16.73-8.76-39.59-24.39-80.29-54.91-126.76-139.77c-41.16-75.17-56.96-164.88-56.68-250.55.55-163.95 107.26-303.55 220.06-410.9q10.83-10.31 47.81-44.7c67.58-62.87 119.95-140.94 138.68-232.48 5.59-27.35 7.52-54.59 10.77-82.23a1 .99 2.9 0 1 .98-.88l9.39-.17a1 1 0 0 1 1.02.99q1.31 208.9 2.51 416.38c.07 12.74-.97 27.07-1.88 40.2Q524.23 539 501.96 602.5Z"/><path fill="#231f20" d="M485.75 641.29c-.85.08-1.61-.29-2.34-.29H186.1q-2.19 0-.76-1.65l31.3-36.23a1 1 0 0 1 .76-.35q141.79-.04 283.6-.13.47 0 .96-.14l.06.12a.27.25-12.9 0 0 .23.13H606.5a1 1 0 0 0 1-1v-450.5a1.02.99-24.8 0 1 .26-.67l36.59-40.8q1.4-1.55 1.4.54v491.43a1 1 0 0 0 1 1h421.07q1.68 0 .62 1.3l-29.66 36.58a1.01 1 19.3 0 1-.78.37H646.75a1 1 0 0 0-1 1v1153.33a1 .96 67.8 0 1-.27.68l-36.59 39.39q-1.39 1.49-1.39-.54V642a1 1 0 0 0-1-1q-59.91 0-120-.02-.43 0-.75.31Z"/></svg>