<?xml version="1.0" encoding="UTF-8" standalone="no"?>
<svg
   width="196.52mm"
   height="196.52mm"
   viewBox="0 0 196.52 196.52"
   version="1.1"
   id="svg32"
   sodipodi:docname="Fediverse_logo_proposal.svg"
   inkscape:version="1.2.2 (b0a8486541, 2022-12-01)"
   xmlns:inkscape="http://www.inkscape.org/namespaces/inkscape"
   xmlns:sodipodi="http://sodipodi.sourceforge.net/DTD/sodipodi-0.dtd"
   xmlns="http://www.w3.org/2000/svg"
   xmlns:svg="http://www.w3.org/2000/svg">
  <defs
     id="defs36" />
  <sodipodi:namedview
     id="namedview34"
     pagecolor="#ffffff"
     bordercolor="#000000"
     borderopacity="0.25"
     inkscape:showpageshadow="2"
     inkscape:pageopacity="0.0"
     inkscape:pagecheckerboard="0"
     inkscape:deskcolor="#d1d1d1"
     inkscape:document-units="mm"
     showgrid="false"
     inkscape:zoom="0.65701539"
     inkscape:cx="371.37639"
     inkscape:cy="371.37639"
     inkscape:window-width="1280"
     inkscape:window-height="654"
     inkscape:window-x="0"
     inkscape:window-y="30"
     inkscape:window-maximized="1"
     inkscape:current-layer="svg32" />
  <path
     fill="#a730b8"
     d="M47.9242 72.7966a18.2278 18.2278 0 0 1-7.7959 7.7597l42.7984 42.9653 10.3182-5.2291zm56.4524 56.6704-10.3182 5.2291 21.686 21.7708a18.2278 18.2278 0 0 1 7.7975-7.7608z"
     id="path2"
     style="fill:#ffffff;fill-opacity:1" />
  <path
     fill="#5496be"
     d="M129.6645 102.0765l1.7865 11.4272 27.4149-13.8942a18.2278 18.2278 0 0 1-4.9719-9.8124zm-14.0658 7.1282-57.2891 29.0339a18.2278 18.2278 0 0 1 4.9728 9.8133l54.1027-27.4194z"
     id="path4"
     style="fill:#ffffff;fill-opacity:1" />
  <path
     fill="#ce3d1a"
     d="M69.5312 91.6539l8.1618 8.1933 29.269-57.1387a18.2278 18.2278 0 0 1-9.787-5.0219zm-7.1897 14.0363-14.0022 27.3353a18.2278 18.2278 0 0 1 9.786 5.0214l12.3775-24.1639z"
     id="path6"
     style="fill:#ffffff;fill-opacity:1" />
  <path
     fill="#d0188f"
     d="M39.8906 80.6763a18.2278 18.2278 0 0 1-10.8655 1.7198l8.1762 52.2981a18.2278 18.2278 0 0 1 10.8645-1.7198z"
     id="path8"
     style="fill:#ffffff;fill-opacity:1" />
  <path
     fill="#5b36e9"
     d="M63.3259 148.3109a18.2278 18.2278 0 0 1-1.7322 10.8629l52.2893 8.3907a18.2278 18.2278 0 0 1 1.7322-10.8629z"
     id="path10"
     style="fill:#ffffff;fill-opacity:1" />
  <path
     fill="#30b873"
     d="M134.9148 146.9182a18.2278 18.2278 0 0 1 9.788 5.0224l24.1345-47.117a18.2278 18.2278 0 0 1-9.7875-5.0229z"
     id="path12"
     style="fill:#ffffff;fill-opacity:1" />
  <path
     fill="#ebe305"
     d="M126.1329 33.1603a18.2278 18.2278 0 0 1-7.7975 7.7608l37.3765 37.5207a18.2278 18.2278 0 0 1 7.7969-7.7608z"
     id="path14"
     style="fill:#ffffff;fill-opacity:1" />
  <path
     fill="#f47601"
     d="M44.7704 51.6279a18.2278 18.2278 0 0 1 4.9723 9.8123l47.2478-23.9453a18.2278 18.2278 0 0 1-4.9718-9.8113z"
     id="path16"
     style="fill:#ffffff;fill-opacity:1" />
  <path
     fill="#57c115"
     d="M118.2491 40.9645a18.2278 18.2278 0 0 1-10.8511 1.8123l4.1853 26.8 11.42 1.8324zm-4.2333 44.1927 9.8955 63.3631a18.2278 18.2278 0 0 1 10.88-1.6278l-9.355-59.9035z"
     id="path18"
     style="fill:#ffffff;fill-opacity:1" />
  <path
     fill="#dbb210"
     d="M49.7763 61.6412a18.2278 18.2278 0 0 1-1.694 10.8686l26.8206 4.3077 5.2715-10.2945zm45.9677 7.382-5.272 10.2955 63.3713 10.1777a18.2278 18.2278 0 0 1 1.7606-10.8593z"
     id="path20"
     style="fill:#ffffff;fill-opacity:1" />
  <path
     fill="#ffca00"
     d="M93.4385 23.8419a1 1 0 1 0 33.0924 1.8025 1 1 0 1 0-33.0924-1.8025"
     id="path22"
     style="fill:#ffffff;fill-opacity:1" />
  <path
     fill="#64ff00"
     d="M155.314 85.957a1 1 0 1 0 33.0923 1.8025 1 1 0 1 0-33.0923-1.8025"
     id="path24"
     style="fill:#ffffff;fill-opacity:1" />
  <path
     fill="#00a3ff"
     d="M115.3466 163.9824a1 1 0 1 0 33.0923 1.8025 1 1 0 1 0-33.0923-1.8025"
     id="path26"
     style="fill:#ffffff;fill-opacity:1" />
  <path
     fill="#9500ff"
     d="M28.7698 150.0898a1 1 0 1 0 33.0923 1.8025 1 1 0 1 0-33.0923-1.8025"
     id="path28"
     style="fill:#ffffff;fill-opacity:1" />
  <path
     fill="#ff0000"
     d="M15.2298 63.4781a1 1 0 1 0 33.0923 1.8025 1 1 0 1 0-33.0923-1.8025"
     id="path30"
     style="fill:#ffffff;fill-opacity:1" />
</svg>
